<svg width="222" height="42" viewBox="0 0 222 42" fill="none" xmlns="http://www.w3.org/2000/svg">
<path d="M14.3196 33.9243L14.4864 32.0486L14.4517 28.579C11.1227 28.4391 8.63199 28.0124 6.97961 27.2991C5.32709 26.5734 4.10565 25.6578 3.31527 24.5523C2.83869 23.9015 2.46652 23.1753 2.19873 22.3739C1.9432 21.56 1.52271 20.9519 0.937284 20.5495L1.2117 20.1571C1.77202 20.5226 2.37378 20.7022 3.01697 20.6958C3.67254 20.6892 4.50721 20.6561 5.52099 20.5965C6.53477 20.5369 7.67836 20.4698 8.95177 20.3953C10.2251 20.3083 11.1337 20.2498 11.6777 20.2196C12.2217 20.1894 12.6229 20.1112 12.8815 19.9849C13.1399 19.8462 13.323 19.6032 13.4308 19.2557L14.2685 19.5257C14.2324 19.625 14.2152 19.7551 14.2168 19.9159C14.2209 20.3241 14.5656 20.7845 15.2511 21.2972C15.9366 21.8099 17.17 22.0574 18.9511 22.0396C20.1509 22.0276 21.0024 21.815 21.5054 21.4018C21.7262 21.214 21.8353 20.9902 21.8327 20.7305C21.8267 20.1244 21.4887 19.7257 20.8188 19.5345C20.1489 19.3433 19.337 19.1844 18.3832 19.0578C17.4417 18.9188 16.4943 18.8107 15.541 18.7337C14.6 18.6565 13.5784 18.543 12.4759 18.3932C11.3734 18.2434 10.3327 18.0806 9.35367 17.9048C8.37453 17.7166 7.41926 17.4417 6.48787 17.0799C5.56884 16.7179 4.77908 16.2928 4.11857 15.8046C3.45794 15.304 2.91964 14.6661 2.50367 13.891C2.09995 13.1033 1.89309 12.2085 1.88308 11.2066C1.87308 10.2047 2.01855 9.28784 2.3195 8.45601C2.63282 7.62407 3.05864 6.90851 3.59695 6.30936C4.13527 5.7102 4.78558 5.17796 5.5479 4.71265C6.32259 4.2472 7.12906 3.86804 7.96732 3.57514C8.81796 3.28213 9.74336 3.04403 10.7435 2.86086C12.4844 2.52184 14.1279 2.34461 15.674 2.32917C17.2202 2.31372 18.3955 2.32673 19.2 2.36817C20.0167 2.39713 20.9699 2.46801 22.0597 2.58083C23.1616 2.68116 24.1531 2.863 25.034 3.12635C25.9272 3.37721 26.8087 3.7024 27.6786 4.10194C29.4929 4.925 30.7738 6.21729 31.5213 7.97879C31.8244 8.60666 32.2385 9.19011 32.7634 9.72917L32.5265 10.1583C32.0034 9.8048 31.4017 9.63144 30.7214 9.63823L30.4802 9.64064C29.491 9.68763 28.0755 9.77599 26.2336 9.90572C24.404 10.023 23.2233 10.0966 22.6917 10.1267C22.1724 10.1566 21.7959 10.2346 21.5621 10.3606C21.3407 10.4865 21.1823 10.7231 21.0868 11.0705L20.2682 10.856C20.3042 10.7443 20.3216 10.6266 20.3203 10.5029C20.3151 9.98339 19.8901 9.5423 19.0453 9.17963C18.2004 8.80458 17.2461 8.62237 16.1823 8.633C14.1043 8.65375 13.0694 9.07231 13.0775 9.88868C13.0848 10.6185 14.6486 11.1348 17.769 11.4376C18.4996 11.5169 19.3292 11.5952 20.2578 11.6725C23.4895 11.9742 25.9677 12.3886 27.6925 12.9157C31.3156 14.0176 33.1432 16.1704 33.1752 19.374C33.1883 20.6851 32.928 21.8691 32.3942 22.9259C31.8604 23.9703 31.1576 24.8247 30.2859 25.4891C29.4266 26.1533 28.4054 26.7078 27.2223 27.1526C25.0902 27.9532 22.6512 28.3672 19.9053 28.3947C19.1631 28.4021 18.7239 28.4003 18.5878 28.3893C17.9198 28.3959 17.591 28.9126 17.6012 29.9392L17.6057 30.3845C17.609 30.7185 17.6943 31.2063 17.8615 31.8479C18.0412 32.5017 18.1327 32.9894 18.1359 33.311C18.1425 33.9666 17.9169 34.2966 17.4592 34.3012C17.2242 34.3036 17.0377 34.2065 16.8997 34.0099C16.774 33.8132 16.7097 33.5665 16.7067 33.2696C16.7037 32.9728 16.7729 32.4649 16.9142 31.746C17.0679 31.0393 17.1432 30.5252 17.14 30.2036C17.1368 29.882 17.1283 29.6532 17.1146 29.5173C17.1133 29.3936 17.0932 29.233 17.0541 29.0355C17.0275 28.8502 16.9767 28.7146 16.9016 28.6288C16.7262 28.4078 16.4282 28.2995 16.0077 28.3037C15.2408 28.3114 14.864 28.9831 14.8773 30.319L15.0191 33.3607C15.0272 34.1771 14.9138 34.5864 14.6788 34.5888C14.4438 34.5911 14.324 34.3696 14.3196 33.9243ZM53.9449 31.1163L54.057 29.3339C54.0539 29.0247 53.903 28.7849 53.6044 28.6147C53.306 28.4569 52.9836 28.3797 52.6372 28.3832C52.2909 28.3866 51.9826 28.4825 51.7123 28.6707C51.4421 28.859 51.3087 29.1263 51.3121 29.4726L51.3547 33.74C51.3609 34.3585 51.4999 35.2663 51.7716 36.4635C52.0433 37.6607 52.1817 38.5129 52.1868 39.02C52.192 39.5395 52.0849 39.9674 51.8656 40.3036C51.6463 40.6398 51.3388 40.8098 50.9429 40.8138C50.5595 40.8176 50.2671 40.6474 50.0657 40.303C49.8644 39.9586 49.7609 39.5082 49.7553 38.9515C49.7498 38.3949 49.8824 37.4287 50.1532 36.0529C50.4239 34.6771 50.5556 33.6119 50.548 32.8574C50.5175 29.8022 49.9333 28.2803 48.7953 28.2917C47.2615 28.307 46.494 28.2528 46.4928 28.1291L46.4932 28.1662C46.5017 29.0197 46.6997 30.2671 47.0872 31.9085C47.4872 33.5621 47.6908 34.7477 47.698 35.4651C47.7051 36.1825 47.5811 36.7713 47.3259 37.2316C47.0709 37.7042 46.6712 37.9432 46.127 37.9487C45.5951 37.954 45.1723 37.7355 44.8587 37.2933C44.5573 36.851 44.4031 36.2711 44.3959 35.5537C44.3889 34.8487 44.5561 33.6285 44.8975 31.8933C45.239 30.1704 45.4054 28.8636 45.3965 27.973C42.4557 27.0746 40.2327 25.5815 38.7274 23.4935C37.2344 21.4055 36.4725 18.8153 36.4416 15.723C36.3776 9.31577 39.5656 5.23881 46.0055 3.49211C48.0905 2.92699 50.2462 2.63331 52.4726 2.61107C54.7114 2.58871 56.6113 2.69344 58.1723 2.92526C59.7457 3.15695 61.2653 3.58092 62.7311 4.19717C64.2093 4.80093 65.4665 5.58008 66.5027 6.53462C67.5513 7.47667 68.3923 8.70531 69.026 10.2205C69.6595 11.7234 69.986 13.4458 70.0054 15.3878C70.0449 19.3459 68.9623 22.4246 66.7576 24.6238C64.5528 26.8106 61.4367 28.1716 57.4093 28.7066C57.3607 28.7937 57.3373 28.93 57.3391 29.1155L57.4421 30.1351C57.4484 30.7659 57.2784 31.0831 56.932 31.0865C56.5857 31.09 56.4095 30.7887 56.4034 30.1826L56.4487 29.143C56.445 28.7719 56.1772 28.589 55.6454 28.5944C55.597 28.7062 55.5744 28.9167 55.5774 29.2259L55.6882 31.0247C55.6919 31.3958 55.6274 31.7552 55.4948 32.1029C55.3622 32.4506 55.1351 32.626 54.8135 32.6292C54.2446 32.6349 53.955 32.1306 53.9449 31.1163ZM46.7763 15.6383C46.8215 20.1655 48.9963 22.4075 53.3008 22.3645C57.6053 22.3215 59.7349 20.0365 59.6897 15.5094C59.6689 13.4313 59.0964 11.8475 57.9722 10.7577C56.848 9.66799 55.2469 9.1335 53.1689 9.15425C51.0908 9.17501 49.5007 9.74137 48.3985 10.8533C47.2962 11.9653 46.7555 13.5603 46.7763 15.6383ZM84.955 37.0599L85.2195 28.2433C81.4416 27.7491 78.5212 26.4175 76.4585 24.2486C74.4081 22.0795 73.3639 19.1025 73.3261 15.3175C73.2859 11.2851 74.5784 8.17345 77.2038 5.98241C80.0988 3.54126 84.4222 2.29196 90.1739 2.23452C99.3889 2.14248 104.567 4.73803 105.708 10.0212C105.865 10.7866 106.198 11.3708 106.709 11.7739L106.398 12.1853C105.8 11.7459 105.155 11.5606 104.463 11.6294L97.324 12.146C96.4959 12.2161 95.9608 12.5246 95.7189 13.0713L95.1036 12.7805C95.2246 12.5072 95.2841 12.2715 95.2821 12.0736C95.2757 11.4304 95.0537 10.876 94.6161 10.4103C94.1907 9.93209 93.6491 9.57876 92.9912 9.35029C91.7126 8.90535 90.4734 8.68888 89.2735 8.70086C87.4429 8.71915 86.0205 9.35806 85.0063 10.6176C84.0044 11.8646 83.5134 13.4839 83.5333 15.4753C83.5531 17.4544 84.1444 19.069 85.3074 20.3192C86.4825 21.5569 88.1153 22.1653 90.2057 22.1444C90.8736 22.1377 91.6142 21.9695 92.4273 21.6397C93.2527 21.2975 93.9778 20.814 94.6024 20.1892C95.2394 19.5643 95.5545 18.9056 95.5476 18.2129C95.5456 18.015 95.4751 17.7683 95.3361 17.4728L95.9452 17.1513C96.2476 17.7049 96.7269 18.0032 97.3829 18.0461C98.0513 18.0889 98.9117 18.1484 99.9639 18.2245C102.279 18.4116 103.888 18.5007 104.791 18.4917C105.694 18.4827 106.403 18.2838 106.919 17.8952L107.22 18.2819C106.766 18.6328 106.426 19.2794 106.2 20.2218C105.987 21.1518 105.556 22.0529 104.91 22.9253C104.263 23.7853 103.527 24.504 102.704 25.0812C101.894 25.646 100.946 26.1441 99.8618 26.5755C98.0014 27.3363 95.9596 27.8824 93.7362 28.2139C93.7476 29.3519 93.9129 31.0388 94.2321 33.2746C94.5513 35.5105 94.7147 36.9995 94.7221 37.7416C94.7295 38.4838 94.6419 39.0042 94.4593 39.3029C94.2891 39.6015 94.0308 39.7526 93.6845 39.756C93.3382 39.7595 93.0708 39.6137 92.8823 39.3187C92.6938 39.0237 92.5962 38.5484 92.5897 37.8928C92.5833 37.2496 92.6697 35.9932 92.8489 34.1235C93.0405 32.2536 93.1332 31.0033 93.1269 30.3724C93.1206 29.7416 93.0854 29.3152 93.0213 29.0932C92.9573 28.8711 92.8813 28.6987 92.7935 28.5759C92.7058 28.4654 92.5565 28.3803 92.3456 28.3206C91.862 28.2017 91.2803 28.1766 90.6006 28.2452C89.2411 28.3701 88.5631 28.6058 88.5666 28.9521L89.0623 33.9943C89.0703 34.7983 88.8393 35.2026 88.3693 35.2073C87.8993 35.212 87.6608 34.8742 87.6541 34.1939C87.6473 33.5136 87.7186 32.6098 87.8682 31.4826C88.0301 30.3553 88.1086 29.5443 88.1037 29.0495C88.0989 28.5671 87.9356 28.3275 87.614 28.3307C86.9832 28.337 86.5572 28.4093 86.3359 28.5476C86.127 28.6858 86.0231 28.8105 86.0242 28.9218L86.3085 36.9536C86.3106 37.1638 86.2444 37.3501 86.11 37.5122C85.9756 37.6867 85.8095 37.775 85.6116 37.777C85.4137 37.7789 85.2522 37.7063 85.127 37.5591C85.0143 37.4242 84.957 37.2578 84.955 37.0599ZM120.159 37.4505L120.314 32.5131C120.298 30.9175 120.226 29.91 120.098 29.4907C119.982 29.0713 119.861 28.7014 119.734 28.381C119.607 28.0607 119.444 27.8025 119.244 27.6066C119.044 27.4106 118.807 27.2275 118.534 27.057C118.011 26.7159 117.192 26.5508 116.079 26.562C114.966 26.5731 114.03 27.0339 113.273 27.9446C112.527 28.855 112.161 29.9411 112.173 31.2028C112.178 31.6728 112.278 32.3707 112.472 33.2966C112.667 34.2348 112.767 34.9389 112.772 35.4089C112.781 36.2995 112.47 36.7479 111.839 36.7542C111.208 36.7605 110.888 36.3308 110.88 35.4649C110.875 34.9825 110.961 34.258 111.136 33.2914C111.325 32.3246 111.416 31.5938 111.411 31.099L111.492 26.1253L111.274 4.32467C111.266 3.55778 111.019 2.94173 110.532 2.47652L110.899 2.08318C111.423 2.57276 112.044 2.81397 112.762 2.8068L119.478 2.73972C120.22 2.73231 120.836 2.47875 121.326 1.97904L121.701 2.36496C121.224 2.85218 120.989 3.47305 120.996 4.22757L121.213 25.9355C121.219 26.5787 121.162 27.6864 121.042 29.2586C120.922 30.8432 120.891 32.062 120.949 32.915L120.93 32.9152C121.408 34.9639 121.653 36.5263 121.663 37.6024C121.674 38.6786 121.475 39.2187 121.067 39.2227C120.474 39.2287 120.171 38.6379 120.159 37.4505ZM126.101 28.5772L126.186 31.5267C126.192 32.1204 126.104 32.5666 125.921 32.8654C125.739 33.1764 125.517 33.3333 125.258 33.3359C124.738 33.3411 124.473 32.8427 124.463 31.8408C124.453 30.8389 124.566 29.7244 124.801 28.4974C125.036 27.2828 125.245 26.4457 125.426 25.9862L134.112 3.98523C134.233 3.66239 134.292 3.34636 134.289 3.03713C134.285 2.7279 134.177 2.42591 133.964 2.13115L134.48 1.79199C134.844 2.32028 135.404 2.58066 136.158 2.57312L144.693 2.48788C145.435 2.48047 145.983 2.20903 146.336 1.67358L146.877 2.00217C146.67 2.30113 146.568 2.58667 146.571 2.85879C146.573 3.13092 146.651 3.45796 146.803 3.83992L156.188 25.6975C156.479 26.3873 156.924 26.9272 157.521 27.317L157.302 27.6718C156.692 27.282 156.016 27.0909 155.274 27.0983L151.638 27.1346C151.665 27.4065 151.679 27.5981 151.68 27.7094C151.684 28.1176 151.52 28.3233 151.186 28.3267C151.037 28.3281 150.9 28.2677 150.775 28.1452C150.663 28.035 150.606 27.8686 150.604 27.6459C150.601 27.4356 150.612 27.2685 150.636 27.1446L148.391 27.167C147.846 27.1725 147.497 27.4728 147.342 28.0682C147.151 28.7999 147.061 29.6358 147.07 30.5759C147.08 31.5283 147.15 32.3935 147.282 33.1716C147.413 33.9496 147.48 34.4808 147.483 34.7653C147.486 35.0622 147.414 35.2979 147.267 35.4726C147.133 35.6595 146.961 35.754 146.751 35.7561C146.54 35.7582 146.36 35.6734 146.21 35.5017C146.06 35.33 145.983 35.0896 145.98 34.7803C145.977 34.4711 146.045 33.8705 146.185 32.9784C146.337 32.0862 146.411 31.4175 146.406 30.9722L146.354 25.7586C146.227 25.4259 146.162 25.1172 146.159 24.8327C146.156 24.5483 146.265 24.2441 146.484 23.9203L145.998 23.5726C145.632 24.1082 145.078 24.3797 144.336 24.3871L136.711 24.4632C135.969 24.4706 135.409 24.2164 135.033 23.7006L134.554 24.0394C134.792 24.3711 134.913 24.6791 134.916 24.9636C134.919 25.2481 134.878 25.5516 134.795 25.874L134.795 25.8926C134.688 26.3143 134.636 26.6364 134.638 26.859C134.64 27.0817 134.767 27.3711 135.018 27.7274L134.539 28.0847C134.162 27.5689 133.603 27.3147 132.861 27.3221L126.145 27.3892C126.11 27.6246 126.095 28.0206 126.101 28.5772ZM138.57 19.3047L142.114 19.2694C142.856 19.2619 143.526 19.4532 144.124 19.8431L144.362 19.4881C143.776 19.0981 143.35 18.5519 143.083 17.8494L140.667 11.843C140.388 11.1407 140.238 10.4247 140.219 9.69503L139.977 9.69744C139.961 10.5141 139.844 11.2327 139.628 11.8534L137.554 17.8861C137.302 18.6061 136.893 19.1669 136.328 19.5684L136.573 19.937C137.15 19.523 137.816 19.3123 138.57 19.3047ZM150.753 33.2853C150.744 32.4319 150.894 31.3603 151.203 30.0707C151.576 31.5514 151.765 32.5144 151.77 32.9597C151.776 33.6153 151.607 33.9448 151.26 33.9483C150.926 33.9516 150.757 33.7306 150.753 33.2853ZM186.525 21.8875L186.475 24.3002C186.489 25.6484 186.77 26.592 187.32 27.1308L186.934 27.5057C186.459 27.028 185.838 26.793 185.071 26.8007L179.672 26.8546C179.686 27.0276 179.695 27.2564 179.698 27.5409C179.705 28.2336 179.535 28.5816 179.189 28.5851C178.842 28.5885 178.665 28.2006 178.657 27.4214C178.655 27.1864 178.659 27.0008 178.67 26.8646L162.065 27.0304C161.768 27.0334 161.513 27.5679 161.301 28.6339C161.102 29.7121 161.005 30.5728 161.012 31.216C161.018 31.8592 161.178 33.008 161.492 34.6625C161.805 36.3294 161.966 37.6267 161.976 38.5544C161.985 39.4944 161.625 39.9681 160.895 39.9754C160.104 39.9833 159.703 39.5049 159.693 38.5401C159.684 37.5753 159.837 36.2315 160.154 34.5089C160.471 32.7986 160.625 31.5105 160.616 30.6447L160.33 3.8347C160.323 3.08018 160.069 2.46419 159.569 1.98674L159.955 1.59322C160.467 2.08292 161.088 2.32413 161.818 2.31684L168.46 2.2505C169.215 2.24296 169.831 1.9894 170.308 1.48981L170.702 1.87555C170.212 2.36289 169.97 2.98382 169.978 3.73834L170.131 19.0452C170.138 19.7873 169.903 20.402 169.426 20.8892L169.819 21.275C170.444 20.6379 171.82 20.3087 173.947 20.2874L182.746 20.6449C184.861 20.6237 186.231 20.2946 186.856 19.6575L187.249 20.0247C186.759 20.512 186.518 21.1329 186.525 21.8875ZM179.884 35.0912C179.889 35.5983 179.682 35.854 179.261 35.8582C178.841 35.8624 178.627 35.5614 178.621 34.9553C178.616 34.4235 178.708 33.7669 178.898 32.9857C179.101 32.2167 179.208 31.8012 179.22 31.7392C179.246 31.8627 179.31 32.1156 179.413 32.4981C179.516 32.8805 179.593 33.1767 179.645 33.3864C179.799 34.0158 179.879 34.584 179.884 35.0912ZM202.603 32.0438L202.77 30.168L202.735 26.6985C199.406 26.5585 196.916 26.1319 195.263 25.4185C193.611 24.6928 192.389 23.7772 191.599 22.6718C191.122 22.0209 190.75 21.2948 190.482 20.4934C190.227 19.6795 189.806 19.0713 189.221 18.669L189.495 18.2766C190.056 18.6421 190.657 18.8216 191.301 18.8152C191.956 18.8086 192.791 18.7756 193.805 18.716C194.818 18.6564 195.962 18.5893 197.235 18.5147C198.509 18.4278 199.417 18.3692 199.961 18.339C200.505 18.3089 200.907 18.2306 201.165 18.1043C201.423 17.9657 201.607 17.7226 201.714 17.3752L202.552 17.6451C202.516 17.7445 202.499 17.8745 202.5 18.0353C202.504 18.4435 202.849 18.904 203.535 19.4167C204.22 19.9294 205.454 20.1768 207.235 20.1591C208.434 20.1471 209.286 19.9345 209.789 19.5212C210.01 19.3334 210.119 19.1097 210.116 18.8499C210.11 18.2438 209.772 17.8452 209.102 17.6539C208.432 17.4627 207.621 17.3038 206.667 17.1773C205.725 17.0382 204.778 16.9302 203.825 16.8531C202.884 16.7759 201.862 16.6624 200.759 16.5126C199.657 16.3628 198.616 16.2 197.637 16.0242C196.658 15.8361 195.703 15.5611 194.771 15.1993C193.852 14.8374 193.063 14.4123 192.402 13.9241C191.742 13.4235 191.203 12.7856 190.787 12.0104C190.384 11.2227 190.177 10.328 190.167 9.32605C190.157 8.32415 190.302 7.40728 190.603 6.57546C190.916 5.74351 191.342 5.02796 191.881 4.4288C192.419 3.82965 193.069 3.29741 193.831 2.83209C194.606 2.36665 195.413 1.98748 196.251 1.69459C197.102 1.40158 198.027 1.16348 199.027 0.980304C200.768 0.641286 202.411 0.464056 203.958 0.448613C205.504 0.433171 206.679 0.446173 207.484 0.487619C208.3 0.516573 209.254 0.58746 210.343 0.70028C211.445 0.800607 212.437 0.982446 213.318 1.2458C214.211 1.49665 215.092 1.82185 215.962 2.22139C217.777 3.04445 219.057 4.33674 219.805 6.09824C220.108 6.7261 220.522 7.30956 221.047 7.84862L220.81 8.27776C220.287 7.92424 219.685 7.75088 219.005 7.75768L218.764 7.76009C217.775 7.80708 216.359 7.89544 214.517 8.02517C212.688 8.14241 211.507 8.21605 210.975 8.2461C210.456 8.27603 210.079 8.35401 209.846 8.48005C209.624 8.60597 209.466 8.84259 209.37 9.18991L208.552 8.97542C208.588 8.86373 208.605 8.74603 208.604 8.62234C208.599 8.10284 208.174 7.66175 207.329 7.29907C206.484 6.92403 205.53 6.74182 204.466 6.75244C202.388 6.7732 201.353 7.19176 201.361 8.00813C201.368 8.73791 202.932 9.25422 206.053 9.55705C206.783 9.63635 207.613 9.71465 208.541 9.79197C211.773 10.0937 214.251 10.5081 215.976 11.0352C219.599 12.1371 221.427 14.2898 221.459 17.4934C221.472 18.8046 221.212 19.9885 220.678 21.0453C220.144 22.0898 219.441 22.9442 218.57 23.6085C217.71 24.2727 216.689 24.8272 215.506 25.272C213.374 26.0726 210.935 26.4867 208.189 26.5141C207.447 26.5215 207.008 26.5197 206.871 26.5087C206.203 26.5154 205.875 27.032 205.885 28.0587L205.889 28.504C205.893 28.8379 205.978 29.3257 206.145 29.9673C206.325 30.6211 206.416 31.1089 206.419 31.4305C206.426 32.086 206.2 32.4161 205.743 32.4207C205.508 32.423 205.321 32.3259 205.183 32.1294C205.058 31.9327 204.993 31.6859 204.99 31.3891C204.987 31.0922 205.056 30.5843 205.198 29.8654C205.351 29.1588 205.427 28.6447 205.424 28.3231C205.42 28.0015 205.412 27.7727 205.398 27.6368C205.397 27.5131 205.377 27.3524 205.338 27.1549C205.311 26.9696 205.26 26.8341 205.185 26.7482C205.01 26.5273 204.712 26.4189 204.291 26.4231C203.524 26.4308 203.148 27.1026 203.161 28.4384L203.303 31.4801C203.311 32.2965 203.197 32.7059 202.962 32.7082C202.727 32.7106 202.608 32.4891 202.603 32.0438Z" fill="url(#paint0_linear_331_37)"/>
<defs>
<linearGradient id="paint0_linear_331_37" x1="112.24" y1="-13.4739" x2="112.783" y2="40.8923" gradientUnits="userSpaceOnUse">
<stop stop-color="#0679FF"/>
<stop offset="0.720174" stop-color="#EC1CFE"/>
</linearGradient>
</defs>
</svg>
